<?xml version="1.0" encoding="UTF-8"?> <svg xmlns="http://www.w3.org/2000/svg" width="20" height="16" viewBox="0 0 20 16" fill="none"> <path d="M14.7963 14.5218L5.20961 14.5218C4.14442 14.5218 3.07924 14.0057 2.54664 13.1455L7.16246 9.18848L7.16246 9.01644C8.40517 9.87666 9.47036 10.3928 10.358 10.3928C11.2457 10.3928 12.1333 9.87666 13.1985 9.18848L17.6368 12.8014C16.9267 13.8336 15.8615 14.5218 14.7963 14.5218ZM2.01405 4.54332C2.90171 5.40354 4.32196 6.77988 5.74221 8.15623L1.83652 11.425L1.83652 5.40354C2.01405 5.05945 2.01405 4.88741 2.01405 4.54332ZM14.7963 2.30676C15.684 2.30676 16.5716 2.65085 17.1042 3.33902C14.6188 6.09171 11.4232 9.01644 10.358 9.01644C9.1153 9.01644 5.74221 6.09171 3.07924 3.16698C3.61183 2.65085 4.32196 2.30676 5.20961 2.30676L14.7963 2.30676ZM14.4412 8.15623C15.8615 6.95192 17.1042 5.57558 17.9919 4.71537C17.9919 4.88741 17.9919 5.05945 17.9919 5.40354L17.9919 11.253L14.4412 8.15623ZM14.7963 0.93042L5.20961 0.930419C2.54664 0.930419 0.593801 2.99494 0.593801 5.40354L0.5938 11.425C0.416269 13.8336 2.54664 15.8982 5.20961 15.8982L14.7963 15.8982C17.2817 15.8982 19.4121 13.8336 19.4121 11.425L19.4121 5.40354C19.4121 2.82289 17.2817 0.93042 14.7963 0.93042Z" fill="#CCEAED"></path> </svg> 