<?xml version="1.0" encoding="UTF-8"?> <svg xmlns="http://www.w3.org/2000/svg" width="18" height="17" viewBox="0 0 18 17" fill="none"> <path d="M13.3477 3.20435C12.8151 3.20435 12.46 3.54843 12.46 4.06456C12.46 4.58069 12.8151 4.92478 13.3477 4.92478C13.8803 4.92478 14.2354 4.58069 14.2354 4.06456C14.2354 3.54843 13.8803 3.20435 13.3477 3.20435Z" fill="#CCEAED"></path> <path d="M5.75348 8.36544C5.75348 6.56512 7.17063 5.15845 9.0867 5.15845C11.0028 5.15845 12.4199 6.56512 12.4199 8.36544C12.4199 10.1658 11.0028 11.5724 9.0867 11.5724C7.17063 11.5724 5.75348 10.1658 5.75348 8.36544Z" stroke="#CCEAED" stroke-width="1.5"></path> <path d="M12.2825 15.5295L5.71389 15.5295C3.42494 15.5295 1.49301 13.7617 1.49301 11.4623L1.49302 5.09674C1.49302 2.93505 3.28285 1.02954 5.71389 1.02954L12.2825 1.02954C14.5537 1.02954 16.5034 2.95234 16.5034 5.09674L16.5034 11.4623C16.5034 13.624 14.7136 15.5295 12.2825 15.5295Z" stroke="#CCEAED" stroke-width="1.5"></path> </svg> 