<?xml version="1.0" encoding="UTF-8"?> <svg xmlns="http://www.w3.org/2000/svg" width="1437" height="2880" viewBox="0 0 1437 2880" fill="none"> <path fill-rule="evenodd" clip-rule="evenodd" d="M11.0825 11.1074C10.9672 7.41911 10.909 3.71637 10.909 0H21.8185C21.8185 3.88723 21.8841 7.75922 22.0141 11.6149C106.48 16.844 185.275 52.1481 246.243 113.263C306.494 174.377 342.316 253.361 347.634 338.03C351.484 338.16 355.351 338.226 359.234 338.226C363.114 338.226 366.978 338.16 370.827 338.03C381.719 162.684 521.528 22.5394 696.453 11.6208C696.583 7.76315 696.649 3.8892 696.649 0H707.558C707.558 3.71643 707.5 7.41971 707.384 11.109C711.064 10.9938 714.759 10.9358 718.468 10.9358V21.8715C714.585 21.8715 710.718 21.9374 706.867 22.0681C695.884 196.734 555.496 337.46 381.249 348.468C381.119 352.329 381.053 356.206 381.053 360.098C381.053 363.99 381.119 367.866 381.249 371.727C555.496 382.736 695.884 523.462 706.867 698.127C710.718 698.258 714.585 698.324 718.468 698.324V709.26C714.76 709.26 711.065 709.201 707.384 709.085C707.492 712.516 707.55 715.959 707.558 719.414H707.558L707.558 719.807L707.558 720.195H707.558C707.55 723.646 707.493 727.088 707.387 730.523C711.067 730.408 714.761 730.35 718.468 730.35V741.286C714.59 741.286 710.727 741.351 706.881 741.482C701.664 826.151 666.445 905.134 605.477 966.249C555.894 1015.95 494.521 1048.58 427.895 1061.85C427.322 1067.66 427.029 1073.55 427.029 1079.51C427.029 1085.79 427.354 1091.99 427.989 1098.09C579.768 1128.82 696.501 1259.15 706.816 1417.54C710.684 1417.67 714.568 1417.74 718.468 1417.74V1428.67C714.751 1428.67 711.048 1428.61 707.358 1428.5C707.483 1432.19 707.55 1435.89 707.558 1439.61L707.558 1440L707.558 1440.39C707.551 1443.85 707.493 1447.29 707.386 1450.72C711.066 1450.6 714.76 1450.55 718.468 1450.55V1461.48C714.587 1461.48 710.722 1461.55 706.873 1461.68C695.93 1636.99 555.523 1777.12 381.249 1788.08C381.118 1791.94 381.053 1795.82 381.053 1799.71C381.053 1803.86 381.128 1807.99 381.276 1812.11C555.928 1823.03 695.568 1962.76 706.826 2137.74C710.691 2137.87 714.572 2137.93 718.468 2137.93V2148.87C714.752 2148.87 711.05 2148.81 707.361 2148.69C707.484 2152.38 707.55 2156.09 707.558 2159.8L707.558 2160.19L707.558 2160.59C707.551 2164.04 707.492 2167.48 707.385 2170.91C711.069 2170.8 714.764 2170.74 718.468 2170.74V2181.68C714.591 2181.68 710.725 2181.74 706.872 2181.87C696.925 2341.25 579.985 2471.55 427.871 2502.16C427.311 2508 427.029 2513.92 427.029 2519.9C427.029 2525.89 427.325 2531.81 427.903 2537.64C580.445 2568.31 696.93 2699.08 706.87 2857.93C710.72 2858.06 714.586 2858.13 718.468 2858.13V2869.06C714.76 2869.06 711.065 2869.01 707.384 2868.89C707.5 2872.58 707.558 2876.28 707.558 2880H696.649C696.649 2876.11 696.583 2872.23 696.453 2868.37C582.458 2861.21 482.954 2798.77 424.695 2707.37H293.905C235.664 2798.69 136.096 2861.2 22.0145 2868.37C21.8842 2872.23 21.8185 2876.11 21.8185 2880H10.909C10.909 2876.28 10.9674 2872.58 11.0831 2868.89C7.40245 2869.01 3.70778 2869.06 0 2869.06V2858.91C3.86528 2858.91 7.71545 2858.84 11.5495 2858.71C21.1553 2699.51 137.772 2568.36 290.565 2537.64C291.143 2531.81 291.439 2525.89 291.439 2519.9C291.439 2513.91 291.143 2507.99 290.564 2502.15C138.716 2471.58 21.926 2341.67 11.6454 2182.66C7.77969 2182.52 3.89752 2182.46 0 2182.46V2171.52C3.71612 2171.52 7.41906 2171.58 11.1079 2171.7C10.9844 2168.01 10.918 2164.3 10.9099 2160.59H10.909L10.9093 2160.2L10.909 2159.8H10.9099C10.9181 2156.09 10.9846 2152.38 11.1085 2148.69C7.41943 2148.81 3.71631 2148.87 0 2148.87V2137.93C3.8982 2137.93 7.78104 2137.87 11.6474 2137.74C22.9465 1963.41 162.568 1823.08 337.192 1812.11C337.34 1808 337.415 1803.86 337.415 1799.71C337.415 1795.82 337.349 1791.94 337.219 1788.08C163.203 1777.14 22.9561 1637.41 11.6454 1462.46C7.77964 1462.33 3.8975 1462.26 0 1462.26V1451.33C3.71612 1451.33 7.41905 1451.39 11.1079 1451.5C10.9843 1447.81 10.918 1444.11 10.9099 1440.39H10.909L10.9093 1440L10.909 1439.61H10.9099C10.9179 1435.9 10.9831 1432.19 11.1052 1428.5C7.41724 1428.61 3.71521 1428.67 0 1428.67V1417.74C3.89424 1417.74 7.77315 1417.67 11.6357 1417.54C17.0206 1333.17 52.2106 1254.48 112.991 1193.56C161.996 1144.43 223.666 1111.51 290.483 1098.06C291.115 1091.97 291.439 1085.78 291.439 1079.51C291.439 1073.55 291.146 1067.66 290.573 1061.85C223.947 1048.58 162.574 1015.95 112.991 966.249C52.6996 905.813 16.8693 826.821 11.5895 741.482C7.74226 741.351 3.87874 741.286 0 741.286V730.35C3.70708 730.35 7.40104 730.408 11.081 730.524C10.9746 727.09 10.9174 723.647 10.9099 720.195H10.909L10.9093 719.806L10.909 719.414H10.9099C10.9175 715.959 10.9755 712.516 11.0831 709.084C7.39812 709.201 3.70341 709.26 0 709.26V698.324C3.87764 698.324 7.74381 698.259 11.5974 698.13C22.5278 523.435 162.321 382.691 337.219 371.722C337.35 367.857 337.415 363.982 337.415 360.098C337.415 356.213 337.35 352.337 337.219 348.472C162.943 337.514 22.5371 197.384 11.5955 22.065C7.74256 21.9362 3.87701 21.8715 0 21.8715V10.9358C3.7032 10.9358 7.3977 10.9931 11.0825 11.1074ZM381.849 1823.11C437.838 1826.83 490.108 1844.26 535.345 1872.08V1982.49C512.46 1918.26 455.972 1869.75 386.348 1859.67C384.206 1847.69 382.695 1835.49 381.849 1823.11ZM545.475 2044.98V1878.57C630.472 1935.11 688.479 2029.21 695.853 2137.18C544.224 2127.11 419.866 2016.46 388.627 1871.25C472.485 1885.74 534.566 1958.77 534.566 2044.98H545.475ZM370.88 1822.56C382.19 1997.5 522.423 2137.22 696.426 2148.18C696.569 2152.17 696.644 2156.17 696.649 2160.2C696.644 2163.95 696.579 2167.7 696.453 2171.42C611.319 2176.72 532.516 2212.63 472.225 2273.07C453.973 2291.36 438.029 2311.26 424.506 2332.43H293.273C234.951 2241.47 135.701 2179.37 22.0418 2172.21C21.8981 2168.23 21.8233 2164.22 21.8188 2160.2C21.8233 2156.17 21.898 2152.17 22.0418 2148.18C196.303 2137.26 336.694 1997.81 347.638 1822.56C351.487 1822.43 355.353 1822.36 359.234 1822.36C363.131 1822.36 367.014 1822.43 370.88 1822.56ZM370.342 1811.6C370.21 1807.65 370.143 1803.69 370.143 1799.71C370.143 1795.99 370.201 1792.29 370.316 1788.6C366.636 1788.71 362.941 1788.77 359.234 1788.77C355.518 1788.77 351.815 1788.71 348.126 1788.6C348.258 1792.54 348.325 1796.51 348.325 1800.49C348.325 1804.21 348.267 1807.91 348.151 1811.6C351.831 1811.48 355.526 1811.42 359.234 1811.42C362.951 1811.42 366.654 1811.48 370.342 1811.6ZM534.565 1728.59C489.493 1756.14 437.483 1773.4 381.797 1777.09C382.61 1764.75 384.085 1752.6 386.185 1740.66C456.215 1730.89 512.343 1682.24 534.565 1618.49V1728.59ZM545.474 1721.63V1556H535.344C535.344 1642.6 472.694 1715.9 388.254 1729.92C418.868 1583.83 543.641 1472.32 695.905 1462.23C688.76 1570.53 630.677 1664.95 545.474 1721.63ZM696.453 1451.23C521.528 1462.15 381.719 1602.29 370.827 1777.64C366.978 1777.77 363.114 1777.84 359.234 1777.84C355.336 1777.84 351.454 1777.77 347.588 1777.64C336.278 1602.69 196.045 1462.97 22.0418 1452.02C21.898 1448.03 21.8233 1444.02 21.8188 1440C21.8233 1435.98 21.8979 1431.98 22.0421 1427.98C136.026 1420.81 235.519 1358.37 293.773 1266.98H424.695C482.949 1358.37 582.442 1420.81 696.426 1427.98C696.57 1431.97 696.644 1435.98 696.649 1440C696.644 1443.76 696.579 1447.5 696.453 1451.23ZM22.6147 1463.01C29.9871 1570.98 87.9951 1665.09 172.993 1721.63V1555.22H183.902C183.902 1641.48 246.065 1714.55 330.006 1728.98C299.043 1583.53 174.513 1473.05 22.6147 1463.01ZM336.671 1777.09C280.984 1773.4 228.974 1756.14 183.902 1728.59V1617.71C206.039 1681.98 262.571 1730.51 332.258 1740.55C334.371 1752.52 335.854 1764.71 336.671 1777.09ZM172.215 1879.09C87.6427 1935.68 29.9666 2029.54 22.6151 2137.18C174.551 2127.09 299.104 2016.01 330.029 1870.37C245.682 1885.18 183.124 1958.44 183.124 2044.98H172.215V1879.09ZM183.124 1872.08V1982.49C205.331 1918.78 262.15 1869.4 332.141 1859.56C334.271 1847.61 335.776 1835.45 336.619 1823.11C280.631 1826.83 228.361 1844.26 183.124 1872.08ZM437.642 1266.98C494.231 1351.95 588.164 1409.83 695.853 1416.99C688.479 1309.02 630.472 1214.91 545.475 1158.37V1246.4C563.535 1252.65 582.935 1256.05 603.139 1256.05V1266.98H545.475V1324.78H534.566C534.566 1304.6 531.163 1285.14 524.874 1266.98H437.642ZM429.555 1109.53C467.572 1117.62 503.231 1132.14 535.345 1151.89V1242.54C531.463 1240.92 527.651 1239.16 523.916 1237.28C506.282 1204.35 479.207 1177.22 446.17 1159.75C438.263 1144.21 432.584 1127.33 429.555 1109.53ZM531.531 1253.25C532.795 1253.77 534.067 1254.29 535.345 1254.79V1256.83H532.993C532.518 1255.63 532.03 1254.43 531.531 1253.25ZM515.999 1245.9C517.786 1249.48 519.455 1253.12 521.001 1256.83H431.137C411.371 1224.73 396.807 1189.08 388.627 1151.05C405.993 1154.05 422.425 1159.56 437.565 1167.18C455.186 1200.65 482.632 1228.2 515.999 1245.9ZM430.598 1152.42C416.69 1146.65 401.914 1142.52 386.492 1140.28C384.274 1128.04 382.714 1115.57 381.849 1102.91C394.112 1103.73 406.196 1105.2 418.067 1107.3C420.359 1123.05 424.623 1138.18 430.598 1152.42ZM457.514 1178.94C469.973 1197.26 485.785 1213.09 504.072 1225.57C491.642 1207.29 475.847 1191.43 457.514 1178.94ZM370.88 1102.36C374.51 1158.51 391.42 1211.03 418.463 1256.83H300.005C327.049 1211.03 343.959 1158.51 347.588 1102.36C351.458 1102.23 355.34 1102.16 359.234 1102.16C363.131 1102.16 367.014 1102.23 370.88 1102.36ZM381.276 1091.92C393.281 1092.68 405.124 1094.06 416.776 1096.02C416.341 1090.83 416.119 1085.59 416.119 1080.29C416.119 1074.76 416.362 1069.28 416.836 1063.86C405.111 1065.81 393.237 1067.15 381.248 1067.9C381.118 1071.75 381.053 1075.62 381.053 1079.51C381.053 1083.67 381.128 1087.8 381.276 1091.92ZM370.316 1068.4C370.201 1072.09 370.143 1075.8 370.143 1079.51C370.143 1083.49 370.21 1087.46 370.342 1091.4C366.653 1091.29 362.95 1091.23 359.234 1091.23C355.523 1091.23 351.82 1091.29 348.126 1091.4C348.258 1087.46 348.325 1083.49 348.325 1079.51C348.325 1075.8 348.267 1072.09 348.151 1068.4C351.836 1068.52 355.531 1068.58 359.234 1068.58C362.937 1068.58 366.631 1068.52 370.316 1068.4ZM381.797 1056.89C394.056 1056.08 406.201 1054.61 418.186 1052.49C420.485 1037.15 424.656 1022.41 430.456 1008.51C416.526 1014.23 401.697 1018.3 386.185 1020.46C384.085 1032.4 382.611 1044.56 381.797 1056.89ZM388.254 1009.73C396.23 971.663 410.599 935.946 430.181 903.759H521.779C520.313 907.273 518.736 910.731 517.053 914.128C483.035 931.899 455.083 959.867 437.289 993.928C422.106 1001.44 405.642 1006.84 388.254 1009.73ZM455.054 983.805C468.567 962.813 486.404 944.892 507.312 931.298C493.833 952.237 476.021 970.18 455.054 983.805ZM444.899 1001.82C479.38 984.004 507.264 955.664 524.735 921.337C527.957 919.733 531.234 918.224 534.565 916.816V1008.34C502.086 1028.25 466.596 1042.41 429.418 1050.3C432.252 1033.18 437.536 1016.89 444.899 1001.82ZM545.474 1001.36C564.045 988.965 581.536 974.624 597.684 958.438C656.194 899.787 690.529 823.454 695.904 742.031C588.194 749.172 494.24 807.061 437.642 892.042H526.185C532.133 874.333 535.344 855.408 535.344 835.801H545.474V892.042H603.139V902.978C582.934 902.978 563.534 906.373 545.474 912.625V1001.36ZM534.565 906.104C533.391 906.569 532.224 907.047 531.063 907.535C531.576 906.283 532.075 905.024 532.562 903.759H534.565V906.104ZM417.374 903.759C390.817 949.402 374.293 1001.64 370.827 1057.44C366.972 1057.57 363.107 1057.64 359.234 1057.64C355.359 1057.64 351.494 1057.57 347.638 1057.44C344.155 1001.64 327.555 949.401 300.922 903.759H417.374ZM696.453 731.035C582.023 738.177 482.62 800.62 424.503 892.042H293.773C235.513 800.642 136.008 738.207 22.0117 731.04C21.8874 727.307 21.823 723.562 21.8188 719.806C21.823 716.045 21.8886 712.298 22.0146 708.567C106.481 703.237 185.275 667.328 246.243 606.932C306.494 545.818 342.316 466.834 347.634 382.166C351.484 382.035 355.351 381.969 359.234 381.969C363.115 381.969 366.98 382.035 370.83 382.165C381.773 557.483 522.178 697.611 696.453 708.569C696.579 712.299 696.644 716.045 696.649 719.804C696.644 723.556 696.579 727.3 696.453 731.035ZM332.141 1139.36C334.272 1127.41 335.777 1115.25 336.619 1102.9C324.134 1103.72 311.793 1105.22 299.636 1107.38C297.419 1122.77 293.338 1137.57 287.618 1151.53C301.65 1145.7 316.569 1141.55 332.141 1139.36ZM330.029 1150.17C321.886 1188.52 307.25 1224.48 287.331 1256.83H196.683C198.204 1253.18 199.844 1249.59 201.599 1246.06C235.535 1228.26 263.13 1200.41 280.663 1166.56C295.935 1158.84 312.512 1153.25 330.029 1150.17ZM261.906 1177.52C248.972 1196.94 232.296 1213.64 212.903 1226.58C225.826 1207.24 242.479 1190.53 261.906 1177.52ZM272.993 1158.37C239.029 1176.11 211.338 1204.06 193.79 1237.66C190.3 1239.4 186.743 1241.03 183.124 1242.54V1151.85C215.724 1131.7 251.379 1117.39 288.926 1109.46C285.989 1126.75 280.549 1143.19 272.993 1158.37ZM172.215 1158.89V1246.67C154.376 1252.75 135.243 1256.05 115.329 1256.05V1266.98H172.215V1324.78H183.124C183.124 1304.6 186.526 1285.14 192.813 1266.98H280.826C224.237 1351.95 130.304 1409.83 22.6157 1416.99C28.1591 1335.86 62.4616 1259.83 120.783 1201.37C136.737 1185.38 153.954 1171.18 172.215 1158.89ZM185.129 1256.83C185.609 1255.58 186.103 1254.33 186.61 1253.1C185.454 1253.58 184.292 1254.05 183.124 1254.51V1256.83H185.129ZM337.415 1079.51C337.415 1075.62 337.35 1071.75 337.22 1067.9C324.962 1067.14 312.823 1065.75 300.841 1063.73C301.323 1069.19 301.57 1074.71 301.57 1080.29C301.57 1085.62 301.348 1090.91 300.913 1096.13C312.87 1094.1 324.977 1092.69 337.192 1091.92C337.34 1087.8 337.415 1083.67 337.415 1079.51ZM336.671 1056.89C335.855 1044.52 334.373 1032.33 332.263 1020.35C316.382 1018.07 301.185 1013.78 286.922 1007.76C292.866 1021.84 297.136 1036.79 299.482 1052.34C311.727 1054.54 324.139 1056.06 336.671 1056.89ZM288.287 903.759C307.846 935.908 322.203 971.578 330.186 1009.59C312.284 1006.54 295.371 1000.81 279.838 992.862C262.396 959.99 235.462 932.878 202.755 915.252C200.86 911.495 199.095 907.661 197.467 903.759H288.287ZM262.838 982.917C249.691 962.76 232.541 945.474 212.51 932.187C225.626 952.295 242.753 969.6 262.838 982.917ZM186.181 903.759C186.74 905.208 187.316 906.649 187.91 908.081C186.582 907.51 185.246 906.955 183.902 906.415V903.759H186.181ZM194.135 921.538C190.784 919.859 187.372 918.283 183.902 916.815V1008.34C216.381 1028.25 251.871 1042.41 289.05 1050.3C286.188 1033.01 280.827 1016.57 273.349 1001.38C239.297 983.616 211.586 955.603 194.135 921.538ZM115.329 892.042H172.993V835.801H183.902C183.902 855.408 187.113 874.333 193.061 892.042H280.826C224.226 807.058 130.267 749.168 22.5521 742.03C27.8917 824.006 62.234 899.747 120.783 958.438C136.931 974.624 154.422 988.965 172.993 1001.36V912.624C154.933 906.372 135.533 902.978 115.329 902.978V892.042ZM381.797 337.481C550.075 326.324 684.776 191.3 695.905 22.6171C527.627 33.7732 392.926 168.798 381.797 337.481ZM359.234 349.162C362.941 349.162 366.636 349.103 370.316 348.987C370.201 352.676 370.143 356.38 370.143 360.098C370.143 363.815 370.201 367.519 370.317 371.209C366.636 371.092 362.942 371.033 359.234 371.033C355.525 371.033 351.83 371.092 348.15 371.207C348.266 367.513 348.325 363.81 348.325 360.098C348.325 356.385 348.266 352.681 348.15 348.987C351.831 349.103 355.526 349.162 359.234 349.162ZM381.797 382.715C392.926 551.397 527.627 686.422 695.905 697.578C684.776 528.896 550.075 393.871 381.797 382.715ZM22.5616 22.6068C33.6863 191.294 168.389 326.324 336.671 337.481C331.296 256.058 296.96 179.724 238.45 121.074C179.901 62.384 104.341 27.9591 22.5616 22.6068ZM336.671 382.715C168.389 393.871 33.6862 528.901 22.5616 697.589C104.341 692.236 179.901 657.811 238.45 599.121C296.96 540.471 331.296 464.137 336.671 382.715ZM1066.62 1788.6C1070.3 1788.71 1074 1788.77 1077.7 1788.77C1081.41 1788.77 1085.11 1788.71 1088.79 1788.6C1088.67 1792.29 1088.61 1795.99 1088.61 1799.71C1088.61 1803.69 1088.68 1807.67 1088.81 1811.62C1084.86 1811.49 1080.9 1811.42 1076.92 1811.42C1073.47 1811.42 1070.03 1811.47 1066.6 1811.57C1066.73 1807.64 1066.79 1803.68 1066.79 1799.71C1066.79 1795.99 1066.74 1792.29 1066.62 1788.6ZM1077.7 1777.84C1081.58 1777.84 1085.45 1777.77 1089.3 1777.64C1100.23 1602.95 1240.02 1462.2 1414.92 1451.23C1415.04 1447.63 1415.11 1444.02 1415.12 1440.39H1414.34C1414.34 1436.22 1414.26 1432.07 1414.11 1427.93C1240.48 1416.61 1100.66 1277.06 1089.35 1102.39C1085.23 1102.24 1081.08 1102.16 1076.92 1102.16C1073.29 1102.16 1069.67 1102.22 1066.06 1102.34C1054.74 1277.55 914.102 1417.44 739.73 1428.03C739.592 1431.87 739.518 1435.73 739.509 1439.61H740.288C740.288 1443.5 740.354 1447.38 740.484 1451.24C914.758 1462.19 1055.16 1602.32 1066.11 1777.64C1069.96 1777.77 1073.82 1777.84 1077.7 1777.84ZM1088.81 1091.43C1084.87 1091.3 1080.9 1091.23 1076.92 1091.23C1073.47 1091.23 1070.03 1091.28 1066.6 1091.38C1066.73 1087.44 1066.79 1083.48 1066.79 1079.51C1066.79 1075.79 1066.73 1072.09 1066.62 1068.4C1070.3 1068.52 1074 1068.58 1077.7 1068.58C1081.41 1068.58 1085.1 1068.52 1088.78 1068.4C1088.67 1072.09 1088.61 1075.79 1088.61 1079.51C1088.61 1083.5 1088.68 1087.47 1088.81 1091.43ZM1100.32 1102.97C1101.19 1115.61 1102.75 1128.06 1104.96 1140.28C1174.52 1150.4 1230.94 1198.89 1253.81 1263.08V1152.37C1208.61 1124.4 1156.34 1106.82 1100.32 1102.97ZM1413.54 1416.94C1262.26 1406.53 1138.28 1296.02 1107.1 1151.05C1190.95 1165.54 1253.03 1238.58 1253.03 1324.78H1263.94H1264.72V1159.41C1348.86 1216.05 1406.19 1309.65 1413.54 1416.94ZM1424.51 1417.51C1413.26 1242.82 1274.02 1103.25 1099.75 1091.96C1099.6 1087.83 1099.52 1083.68 1099.52 1079.51C1099.52 1075.62 1099.59 1071.74 1099.72 1067.89C1273.94 1056.93 1413.7 916.8 1425.26 741.485C1429.13 741.352 1433.03 741.286 1436.94 741.286V730.35C1433.21 730.35 1429.51 730.408 1425.81 730.524C1425.94 726.835 1426.01 723.131 1426.03 719.414H1425.25C1425.24 715.956 1425.18 712.504 1425.08 709.06C1429.01 709.193 1432.97 709.26 1436.94 709.26V698.324C1432.8 698.324 1428.67 698.249 1424.57 698.1C1419.35 613.336 1384.13 533.753 1323.17 473.36C1273.8 423.876 1212.75 391.314 1146.46 377.936C1145.82 371.818 1145.5 365.606 1145.5 359.317C1145.5 353.583 1145.77 347.914 1146.3 342.322C1298.26 311.592 1414.71 180.856 1425.25 22.0709C1429.13 21.9383 1433.03 21.8715 1436.94 21.8715V10.9358C1433.21 10.9358 1429.5 10.9946 1425.81 11.1112C1425.94 7.42118 1426.01 3.71717 1426.03 0H1415.12C1415.12 3.8903 1415.05 7.76534 1414.92 11.6241C1300.96 18.771 1201.91 81.0147 1143.69 171.847H1011.74C953.415 80.8732 854.154 18.7735 740.484 11.626C740.354 7.76666 740.288 3.89097 740.288 0H729.379C729.379 3.71735 729.437 7.42107 729.552 11.1103C725.871 10.9943 722.177 10.9358 718.469 10.9358V21.8715C722.35 21.8715 726.216 21.9374 730.065 22.0679C740.014 181.461 856.975 311.767 1009.11 342.359C1009.64 347.939 1009.91 353.596 1009.91 359.317C1009.91 365.524 1009.59 371.656 1008.96 377.697C856.064 408.1 739.23 539.048 729.286 698.153C725.694 698.267 722.088 698.324 718.469 698.324V709.26C721.915 709.26 725.349 709.209 728.772 709.109C728.657 712.791 728.599 716.486 728.599 720.195H729.379C729.387 723.65 729.445 727.094 729.552 730.524C725.871 730.408 722.177 730.35 718.469 730.35V741.286C722.35 741.286 726.216 741.351 730.065 741.482C741.008 916.799 881.414 1056.93 1055.69 1067.89C1055.82 1071.75 1055.88 1075.62 1055.88 1079.51C1055.88 1083.65 1055.81 1087.77 1055.66 1091.87C880.666 1102.47 740.639 1242.97 729.335 1417.57C725.727 1417.68 722.104 1417.74 718.469 1417.74V1428.67C721.923 1428.67 725.366 1428.62 728.797 1428.52C728.665 1432.46 728.599 1436.42 728.599 1440.39H729.379C729.387 1443.85 729.445 1447.29 729.552 1450.72C725.871 1450.6 722.177 1450.55 718.469 1450.55V1461.48C722.35 1461.48 726.216 1461.55 730.065 1461.68C741.008 1636.99 881.414 1777.12 1055.69 1788.08C1055.82 1791.94 1055.88 1795.82 1055.88 1799.71C1055.88 1803.84 1055.81 1807.96 1055.66 1812.07C880.666 1822.66 740.639 1963.17 729.335 2137.76C725.727 2137.88 722.104 2137.93 718.469 2137.93V2148.87C721.923 2148.87 725.366 2148.82 728.797 2148.72C728.665 2152.66 728.599 2156.61 728.599 2160.59H729.379C729.388 2164.3 729.454 2168.01 729.578 2171.7C725.888 2171.58 722.185 2171.52 718.469 2171.52V2181.68C722.35 2181.68 726.216 2181.74 730.065 2181.87C740.013 2341.24 856.936 2471.53 1009.03 2502.15C1009.61 2507.99 1009.91 2513.91 1009.91 2519.9C1009.91 2525.6 1009.4 2531.8 1008.79 2537.69C856.142 2568.49 739.659 2699.55 730.024 2858.63C726.172 2858.91 722.32 2858.91 718.469 2858.91V2869.06H729.547C729.435 2872.7 729.379 2876.34 729.379 2880H740.288C740.288 2694.09 890.683 2541.77 1076.92 2541.77C1263.16 2541.77 1414.34 2693.31 1414.34 2880H1425.25C1425.25 2711.25 1305.65 2569.6 1146.15 2537.6C1145.5 2531.7 1145.5 2525.8 1145.5 2519.9C1145.5 2513.91 1145.79 2507.98 1146.37 2502.14C1298.07 2471.56 1414.37 2341.66 1425.21 2182.66C1429.1 2182.52 1433.01 2182.46 1436.94 2182.46V2171.52C1433.2 2171.52 1429.49 2171.58 1425.78 2171.7C1425.93 2167.75 1426.01 2163.79 1426.03 2159.8H1425.25C1425.24 2156.08 1425.17 2152.37 1425.05 2148.67C1429 2148.8 1432.96 2148.87 1436.94 2148.87V2137.93C1432.78 2137.93 1428.65 2137.86 1424.53 2137.71C1419.18 2052.68 1383.98 1974 1323.17 1913.75C1262.39 1852.83 1183.91 1817.56 1099.75 1812.15C1099.6 1808.02 1099.52 1803.87 1099.52 1799.71C1099.52 1795.82 1099.59 1791.94 1099.72 1788.08C1273.94 1777.12 1413.7 1637 1425.26 1461.68C1429.13 1461.55 1433.03 1461.48 1436.94 1461.48V1450.55C1433.21 1450.55 1429.51 1450.6 1425.81 1450.72C1425.94 1447.03 1426.01 1443.33 1426.03 1439.61H1425.25C1425.24 1435.88 1425.17 1432.17 1425.05 1428.47C1429 1428.61 1432.96 1428.67 1436.94 1428.67V1417.74C1432.78 1417.74 1428.64 1417.66 1424.51 1417.51ZM1414.92 731.035C1415.04 727.435 1415.11 723.822 1415.12 720.195H1414.34C1414.34 716.291 1414.27 712.399 1414.14 708.52C1300.15 701.096 1200.72 638.403 1142.67 546.786H1012.74C954.416 638.82 854.349 701.667 739.702 708.618C739.582 712.203 739.517 715.802 739.509 719.414H740.288C740.288 723.305 740.354 727.181 740.484 731.04C914.758 741.998 1055.16 882.126 1066.11 1057.44C1069.96 1057.57 1073.82 1057.64 1077.7 1057.64C1081.58 1057.64 1085.45 1057.57 1089.3 1057.44C1100.19 882.098 1240 741.953 1414.92 731.035ZM1106.72 1009.73C1137.34 863.634 1262.11 752.125 1414.37 742.031C1407.25 850.001 1349.5 944.181 1264.72 1000.91V835.801H1253.81C1253.81 922.405 1191.16 995.71 1106.72 1009.73ZM1104.65 1020.46C1174.68 1010.69 1230.83 962.044 1253.81 898.291V1007.92C1208.56 1035.75 1156.27 1053.18 1100.27 1056.89C1101.08 1044.56 1102.55 1032.4 1104.65 1020.46ZM1055.14 1056.89C1054.33 1044.56 1052.85 1032.4 1050.75 1020.46C980.696 1010.69 923.813 962.031 901.592 897.51V1007.92C946.843 1035.75 999.132 1053.18 1055.14 1056.89ZM741.032 742.031C893.296 752.126 1018.07 863.635 1048.68 1009.73C964.242 995.71 901.592 922.405 901.592 835.801H890.682V1000.91C805.906 944.18 748.156 850 741.032 742.031ZM901.592 1151.41C946.86 1123.74 999.128 1106.45 1055.09 1102.86C1054.25 1115.22 1052.74 1127.4 1050.61 1139.36C980.619 1149.21 923.798 1198.59 901.592 1262.29V1151.41ZM890.682 1158.37C805.672 1214.92 747.66 1309.05 740.301 1417.04C892.591 1407.27 1017.52 1296.07 1048.5 1150.17C964.151 1164.98 901.592 1238.24 901.592 1324.78H890.682V1158.37ZM1414.9 2172.21C1415.03 2168.35 1415.11 2164.48 1415.12 2160.59H1414.34C1414.34 2156.42 1414.26 2152.27 1414.12 2148.13C1240.48 2136.81 1100.66 1997.25 1089.35 1822.59C1085.22 1822.44 1081.08 1822.36 1076.92 1822.36C1073.29 1822.36 1069.67 1822.42 1066.06 1822.53C1054.74 1997.75 914.102 2137.64 739.73 2148.23C739.592 2152.07 739.518 2155.93 739.509 2159.8H740.288C740.288 2163.96 740.363 2168.1 740.511 2172.21C854.17 2179.37 953.419 2241.47 1011.74 2332.43H1143.69C1201.9 2241.61 1300.95 2179.37 1414.9 2172.21ZM1156.63 2332.43C1213.28 2247.89 1306.96 2190.34 1414.32 2183.21C1406.97 2290.85 1349.3 2384.71 1264.72 2441.31V2352.75C1282.56 2346.67 1301.69 2343.37 1321.61 2343.37V2332.43H1264.72V2276.19H1253.81C1253.81 2295.8 1250.6 2314.72 1244.65 2332.43H1156.63ZM1240.89 2342.59H1150.09C1129.91 2375.15 1115.1 2411.4 1106.89 2450.09C1124.2 2447.2 1140.6 2441.82 1155.72 2434.34C1173.47 2399.57 1201.75 2371.01 1236.28 2352.97C1237.93 2349.56 1239.46 2346.1 1240.89 2342.59ZM1225.78 2371.69C1204.87 2385.28 1187.03 2403.2 1173.52 2424.2C1194.49 2410.57 1212.3 2392.63 1225.78 2371.69ZM1163.36 2442.23C1198.02 2424.35 1226.11 2395.87 1243.91 2361.38C1247.16 2359.78 1250.46 2358.28 1253.81 2356.88V2448.31C1221.66 2468.08 1185.96 2482.61 1147.89 2490.69C1150.72 2473.58 1156 2457.3 1163.36 2442.23ZM1149.08 2448.84C1135.14 2454.57 1120.31 2458.66 1104.8 2460.83C1102.67 2472.78 1101.16 2484.94 1100.32 2497.28C1112.82 2496.45 1125.13 2494.94 1137.22 2492.78C1139.39 2477.47 1143.43 2462.74 1149.08 2448.84ZM1253.81 2344.93C1252.86 2345.31 1251.91 2345.7 1250.97 2346.09C1251.44 2344.93 1251.9 2343.76 1252.36 2342.59H1253.81V2344.93ZM1137.42 2342.59H1018.01C1045.32 2388.57 1062.41 2441.37 1066.06 2497.83C1069.92 2497.96 1073.81 2498.03 1077.7 2498.03C1081.6 2498.03 1085.48 2497.96 1089.35 2497.83C1093 2441.45 1110.08 2388.63 1137.42 2342.59ZM1088.81 2508.79C1085.12 2508.91 1081.42 2508.97 1077.7 2508.97C1073.99 2508.97 1070.28 2508.91 1066.59 2508.79C1066.73 2512.74 1066.79 2516.7 1066.79 2520.68C1066.3 2524.13 1066.12 2527.58 1066.05 2531.03C1069.92 2530.9 1073.8 2530.84 1077.7 2530.84C1081.5 2530.84 1085.27 2530.9 1089.04 2531.02L1089 2530.45C1088.81 2527.13 1088.61 2523.81 1088.61 2520.68C1088.61 2516.7 1088.68 2512.74 1088.81 2508.79ZM1099.67 2531.52C1099.52 2527.91 1099.52 2524.3 1099.52 2520.68C1099.52 2516.53 1099.6 2512.39 1099.74 2508.27C1112 2507.5 1124.09 2506.09 1135.97 2504.07C1135.57 2509.04 1135.37 2514.06 1135.37 2519.12C1135.37 2524.78 1135.37 2530.44 1135.77 2535.69C1123.93 2533.69 1111.89 2532.29 1099.67 2531.52ZM741.032 2182.42C748.156 2290.39 805.906 2384.57 890.682 2441.3V2352.75C872.844 2346.67 853.712 2343.37 833.797 2343.37V2332.43H890.682V2276.19H901.592C901.592 2295.8 904.803 2314.72 910.751 2332.43H999.294C942.696 2247.45 848.742 2189.56 741.032 2182.42ZM901.592 2356.88V2448.31C933.744 2468.08 969.45 2482.61 1007.52 2490.69C1004.69 2473.6 999.422 2457.35 992.083 2442.31C957.38 2424.49 929.171 2396.06 911.56 2361.41C908.293 2359.8 904.969 2358.29 901.592 2356.88ZM929.622 2371.69C943.102 2392.63 960.915 2410.57 981.884 2424.2C968.37 2403.2 950.532 2385.28 929.622 2371.69ZM918.863 2352.43C954.039 2370.53 982.817 2399.5 1000.72 2434.85C1015.61 2442.08 1031.7 2447.3 1048.68 2450.12C1040.58 2411.44 1025.87 2375.18 1005.8 2342.59H914.513C915.865 2345.92 917.317 2349.2 918.863 2352.43ZM1018.98 2492.92C1016.84 2477.71 1012.86 2463.08 1007.27 2449.25C1021 2454.79 1035.56 2458.74 1050.75 2460.85C1052.85 2472.79 1054.33 2484.95 1055.14 2497.29C1042.9 2496.47 1030.84 2495.01 1018.98 2492.92ZM903.277 2342.59H901.592V2344.62C902.57 2345.01 903.545 2345.4 904.515 2345.8C904.093 2344.73 903.68 2343.66 903.277 2342.59ZM1055.69 2508.28C1043.7 2507.52 1031.87 2506.16 1020.23 2504.21C1020.62 2509.13 1020.82 2514.1 1020.82 2519.12C1020.57 2521.86 1020.4 2524.52 1020.23 2527.13L1020.23 2527.13C1020.05 2530.04 1019.87 2532.88 1019.59 2535.69C1031.29 2533.72 1043.19 2532.33 1055.26 2531.55L1055.28 2531.28L1055.3 2530.89L1055.32 2530.56C1055.36 2529.98 1055.4 2529.41 1055.44 2528.83L1055.49 2528.1C1055.69 2525.37 1055.88 2522.64 1055.88 2519.9C1055.88 2516.01 1055.82 2512.14 1055.69 2508.28ZM1414.37 1462.23C1403.25 1630.91 1268.54 1765.93 1100.27 1777.09C1111.39 1608.41 1246.1 1473.38 1414.37 1462.23ZM1413.55 2137.13C1245.93 2125.61 1111.82 1991.18 1100.32 1823.16C1181.24 1828.73 1257.06 1863.11 1315.37 1921.56C1373.72 1980.05 1408.03 2055.48 1413.55 2137.13ZM740.301 2137.24C751.789 1968.65 886.716 1833.86 1055.09 1823.06C1043.6 1991.64 908.675 2126.44 740.301 2137.24ZM1055.14 1777.09C1044.01 1608.41 909.31 1473.38 741.032 1462.23C752.161 1630.91 886.862 1765.93 1055.14 1777.09ZM429.418 2549.11C574.883 2580.01 685.848 2704.95 695.905 2857.38C588.195 2850.24 494.24 2792.35 437.642 2707.37H603.139V2696.44C515.662 2696.44 443.268 2632.81 429.418 2549.11ZM540.799 2696.44H430.658C402.894 2651.08 385.501 2598.66 381.797 2542.52C394.077 2543.33 406.179 2544.81 418.067 2546.91C428.158 2616.27 476.506 2673.57 540.799 2696.44ZM359.234 2530.84C362.942 2530.84 366.637 2530.9 370.317 2531.01C370.201 2527.32 370.143 2523.62 370.143 2519.9C370.143 2516.19 370.2 2512.49 370.314 2508.79C366.635 2508.91 362.941 2508.97 359.234 2508.97C355.518 2508.97 351.815 2508.91 348.126 2508.79C348.258 2512.74 348.325 2516.7 348.325 2520.68C348.325 2524.14 348.274 2527.58 348.174 2531.01C351.846 2530.9 355.533 2530.84 359.234 2530.84ZM381.053 2519.9C381.053 2523.79 381.118 2527.67 381.249 2531.53C393.266 2532.28 405.118 2533.65 416.773 2535.59C416.34 2530.42 416.119 2525.19 416.119 2519.9C416.119 2514.63 416.336 2509.39 416.765 2504.2C405.108 2506.15 393.259 2507.52 381.249 2508.28C381.118 2512.14 381.053 2516.02 381.053 2519.9ZM418.041 2492.9C406.162 2495 394.069 2496.47 381.797 2497.29C385.422 2442.38 402.216 2389.78 430.712 2343.37H540.02C514.305 2352.74 490.927 2367.58 470.667 2387.89C441.998 2416.63 423.747 2453.2 418.041 2492.9ZM417.803 2343.37C390.259 2390.23 374.21 2442.83 370.821 2497.83C366.974 2497.97 363.112 2498.03 359.234 2498.03C355.336 2498.03 351.454 2497.96 347.588 2497.83C343.958 2441.69 327.048 2389.17 300.004 2343.37H417.803ZM603.139 2332.43H437.72C449.965 2314.11 464.096 2296.84 480.018 2280.88C538.567 2222.19 614.126 2187.76 695.906 2182.41C685.851 2334.88 574.845 2459.84 429.338 2490.71C435.166 2454.48 451.927 2421.52 478.459 2394.92C511.967 2361.33 556.384 2343.37 603.139 2343.37V2332.43ZM418.003 2696.44C391.103 2650.61 374.333 2598.09 370.83 2541.97C366.98 2541.84 363.115 2541.77 359.234 2541.77C355.367 2541.77 351.516 2541.84 347.681 2541.97C344.28 2598.04 327.533 2650.58 300.6 2696.44H418.003ZM287.331 2343.37C315.244 2388.7 332.783 2441.11 336.619 2497.28C324.081 2496.45 311.729 2494.93 299.601 2492.76C289.464 2423.46 241.139 2366.22 176.89 2343.37H287.331ZM280.303 2332.43H115.329V2343.37C202.806 2343.37 275.2 2407 289.05 2490.69C143.835 2459.85 33.0005 2335.28 22.615 2183.21C129.973 2190.34 223.66 2247.89 280.303 2332.43ZM337.192 2508.27C324.917 2507.5 312.81 2506.09 300.904 2504.07C301.345 2509.29 301.57 2514.57 301.57 2519.9C301.57 2525.23 301.348 2530.51 300.914 2535.73C312.829 2533.71 324.95 2532.3 337.245 2531.52C337.358 2527.93 337.415 2524.31 337.415 2520.68C337.415 2516.53 337.34 2512.39 337.192 2508.27ZM336.722 2542.52C324.158 2543.35 311.781 2544.87 299.628 2547.04C289.623 2616.35 241.832 2673.58 176.89 2696.44H288.287C315.902 2651.04 333.15 2598.63 336.722 2542.52ZM281.344 2707.37H115.329V2696.44C202.806 2696.44 275.2 2632.81 289.05 2549.11C143.336 2580.06 32.239 2705.38 22.5114 2858.17C130.573 2851.02 224.794 2792.79 281.344 2707.37ZM1413.6 697.526C1305.88 690.138 1212 631.99 1155.59 546.786H1321.61V535.85C1234.47 535.85 1162.3 472.718 1148.05 389.509C1210.8 403.019 1268.7 434.385 1315.37 481.172C1373.91 539.849 1408.25 615.57 1413.6 697.526ZM1149.13 536.631H1259.27C1195.02 513.778 1146.69 456.543 1136.56 387.244C1124.61 385.105 1112.49 383.608 1100.27 382.768C1103.98 438.891 1121.37 491.286 1149.13 536.631ZM1136.47 536.631C1109.58 490.812 1092.81 438.305 1089.3 382.193C1085.19 382.044 1081.06 381.969 1076.92 381.969C1073.3 381.969 1069.7 382.026 1066.11 382.14C1062.61 438.272 1045.84 490.797 1018.93 536.631H1136.47ZM1088.79 371.23C1084.84 371.099 1080.89 371.033 1076.92 371.033C1073.48 371.033 1070.04 371.084 1066.62 371.184C1066.74 367.502 1066.79 363.807 1066.79 360.098C1066.79 356.38 1066.73 352.677 1066.62 348.987C1070.3 349.103 1074 349.162 1077.7 349.162C1081.41 349.162 1085.11 349.103 1088.79 348.987C1088.67 352.677 1088.61 356.381 1088.61 360.098C1088.61 363.822 1088.67 367.533 1088.79 371.23ZM1099.72 371.762C1111.69 372.529 1123.54 373.901 1135.25 375.865C1134.81 370.665 1134.59 365.406 1134.59 360.098C1134.59 354.802 1134.81 349.556 1135.24 344.369C1123.59 346.332 1111.73 347.709 1099.72 348.468C1099.59 352.329 1099.52 356.206 1099.52 360.098C1099.52 364.001 1099.59 367.89 1099.72 371.762ZM1100.27 337.481C1112.55 336.667 1124.65 335.193 1136.54 333.094C1146.63 263.73 1194.97 206.433 1259.27 183.564H1149.13C1121.36 228.924 1103.97 281.338 1100.27 337.481ZM1089.3 338.03C1092.81 281.994 1109.57 229.451 1136.5 183.564H1018.93C1045.83 229.391 1062.6 281.907 1066.11 338.03C1069.96 338.16 1073.82 338.226 1077.7 338.226C1081.58 338.226 1085.45 338.16 1089.3 338.03ZM1156.63 171.847H1321.61V182.783C1233.85 182.783 1161.27 246.823 1147.76 330.916C1293.28 300.071 1404.31 175.095 1414.37 22.617C1306.99 29.7356 1213.29 87.2922 1156.63 171.847ZM895.358 183.564H1006.28C1034.04 228.924 1051.44 281.338 1055.14 337.481C1042.58 336.648 1030.21 335.126 1018.07 332.952C1007.93 263.652 959.608 206.417 895.358 183.564ZM833.797 171.847H998.772C942.12 87.2926 848.412 29.7361 741.032 22.6171C751.092 175.094 862.121 300.07 1007.65 330.916C994.135 246.823 921.556 182.783 833.797 182.783V171.847ZM1019.37 344.262C1031.29 346.285 1043.4 347.699 1055.69 348.472C1055.82 352.331 1055.88 356.207 1055.88 360.098C1055.88 363.972 1055.82 367.831 1055.69 371.674C1043.4 372.416 1031.29 373.8 1019.38 375.79C1019.82 370.614 1020.04 365.381 1020.04 360.098C1020.04 354.766 1019.81 349.484 1019.37 344.262ZM1018.09 387.101C1030.23 384.958 1042.59 383.466 1055.14 382.664C1051.45 438.826 1034.05 491.258 1006.28 536.631H895.358C959.652 513.763 1008 456.465 1018.09 387.101ZM833.797 546.786H999.813C943.135 632.4 848.616 690.697 740.248 697.629C750.299 544.948 861.588 419.833 1007.39 389.171C993.151 472.547 920.352 535.85 833.797 535.85V546.786Z" fill="url(#paint0_linear)" fill-opacity="0.2"></path> <defs> <linearGradient id="paint0_linear" x1="688" y1="1868" x2="1310" y2="-256" gradientUnits="userSpaceOnUse"> <stop stop-color="#CCEAED"></stop> <stop offset="1" stop-color="#CCEAED" stop-opacity="0"></stop> </linearGradient> </defs> </svg> 