<?xml version="1.0" encoding="UTF-8"?> <svg xmlns="http://www.w3.org/2000/svg" width="744" height="1856" viewBox="0 0 744 1856" fill="none"> <g clip-path="url(#clip0)"> <path d="M731.361 1856H721.25C721.25 1851.8 721.25 1847.61 721.25 1843.41C603.289 1835.85 500.494 1772.06 439.828 1678.04H304.172C244.349 1772.06 141.554 1836.69 22.7497 1843.41C22.7497 1847.61 22.7497 1851.8 22.7497 1856H12.6387C12.6387 1851.8 12.6387 1847.61 12.6387 1844.25C8.42582 1844.25 4.21291 1844.25 0.842582 1844.25V1834.17C5.05549 1834.17 9.2684 1834.17 13.4813 1834.17C23.5923 1670.48 144.082 1536.17 301.644 1505.11C302.487 1499.24 302.487 1492.52 302.487 1485.81H312.598C312.598 1491.68 312.598 1497.56 311.755 1502.6C324.394 1500.08 337.033 1499.24 349.672 1498.4C349.672 1494.2 349.672 1490 349.672 1485.81H359.783C359.783 1490 359.783 1494.2 359.783 1497.56C368.208 1497.56 375.792 1497.56 384.217 1497.56C384.217 1493.36 384.217 1489.16 384.217 1485.81H394.328C394.328 1490 394.328 1494.2 394.328 1498.4C406.967 1499.24 419.606 1500.92 432.245 1502.6C431.402 1496.72 431.402 1491.68 431.402 1485.81H441.513C441.513 1492.52 441.513 1498.4 442.356 1505.11C599.918 1536.17 720.408 1670.48 730.519 1834.17C734.732 1834.17 738.944 1834.17 743.157 1834.17V1844.25C738.944 1844.25 734.732 1844.25 731.361 1844.25C731.361 1847.61 731.361 1851.8 731.361 1856ZM452.467 1678.04C511.447 1766.18 609.187 1826.62 721.25 1833.33C711.139 1676.36 595.706 1547.09 444.883 1515.19C459.207 1601.65 534.197 1667.13 625.196 1667.13V1677.2L452.467 1678.04ZM299.959 1515.19C149.137 1547.09 33.7033 1676.36 23.5923 1833.33C135.656 1825.78 233.395 1766.18 292.376 1678.04H120.489V1667.97C210.646 1667.97 285.635 1601.65 299.959 1515.19ZM445.726 1667.97H562.845C495.438 1645.3 444.041 1585.7 433.93 1513.51C421.291 1510.99 408.652 1509.31 395.171 1508.47C398.541 1566.39 417.078 1620.96 445.726 1667.97ZM310.07 1667.97H433.93C406.125 1620.96 388.43 1566.39 385.06 1508.47C376.634 1508.47 368.208 1508.47 359.783 1508.47C355.57 1566.39 338.718 1620.12 310.07 1667.97ZM181.998 1667.97H299.117C327.764 1620.96 346.301 1567.23 349.672 1509.31C336.19 1510.15 323.552 1511.83 310.913 1514.35C299.959 1585.7 249.404 1644.46 181.998 1667.97ZM442.356 1485.81H432.245C432.245 1479.93 432.245 1474.06 433.087 1469.02C420.448 1471.54 407.81 1472.38 395.171 1473.22C395.171 1477.41 395.171 1481.61 395.171 1485.81H385.06C385.06 1481.61 385.06 1477.41 385.06 1474.06C376.634 1474.06 369.051 1474.06 360.625 1474.06C360.625 1478.25 360.625 1482.45 360.625 1485.81H350.514C350.514 1481.61 350.514 1477.41 350.514 1473.22C337.875 1472.38 325.237 1470.7 312.598 1469.02C313.44 1474.89 313.441 1479.93 313.441 1485.81H303.33C303.33 1479.09 303.33 1473.22 302.487 1466.5C144.082 1435.44 23.5923 1301.13 13.4813 1138.28C9.2684 1138.28 5.05549 1138.28 0.842582 1138.28V1128.21C5.05549 1128.21 9.2684 1128.21 12.6387 1128.21C12.6387 1124.01 12.6387 1120.65 12.6387 1116.45C12.6387 1112.26 12.6387 1108.06 12.6387 1103.86L0 1104.7V1094.63L13.4813 1093.79C26.12 908.273 163.461 769.766 349.672 758.014C349.672 753.816 349.672 749.619 349.672 745.422C349.672 741.225 349.672 737.028 349.672 732.83C167.674 721.918 23.5923 576.695 12.6387 397.055C8.42582 397.055 4.21291 397.055 0 397.055V386.981C4.21291 386.981 8.42582 386.981 11.7961 386.981C11.7961 382.784 11.7961 378.587 11.7961 375.229H21.9071C21.9071 379.426 21.9071 383.624 21.9071 387.821C188.738 397.894 325.237 522.131 353.884 683.303C365.681 692.537 377.477 692.537 389.273 683.303C417.921 522.971 554.419 398.734 721.25 388.66C721.25 384.463 721.25 380.266 721.25 376.069H731.361C731.361 380.266 731.361 384.463 731.361 387.821C735.574 387.821 739.787 387.821 743.157 387.821V397.894C738.944 397.894 734.732 397.894 730.519 397.894C719.565 577.534 575.484 721.918 393.486 733.67C393.486 737.867 393.486 742.064 393.486 746.261C393.486 750.459 393.486 754.656 393.486 758.853C575.484 769.766 718.722 914.989 730.519 1094.63L744 1095.47L743.157 1105.54L731.361 1104.7C731.361 1108.9 731.361 1112.26 731.361 1116.45C731.361 1120.65 731.361 1124.85 731.361 1128.21C735.574 1128.21 739.787 1128.21 743.157 1128.21V1138.28C738.944 1138.28 734.732 1138.28 730.519 1138.28C721.25 1301.13 599.918 1435.44 443.198 1467.34C442.356 1473.22 442.356 1479.09 442.356 1485.81ZM359.783 1463.98C368.208 1463.98 376.634 1463.98 385.06 1463.98C388.43 1406.06 406.125 1351.5 433.93 1304.49H310.913C338.718 1351.5 356.412 1406.06 359.783 1463.98ZM445.726 1304.49C417.078 1351.5 398.541 1405.22 395.171 1463.14C408.652 1462.3 421.291 1460.62 433.93 1458.11C444.041 1385.91 495.438 1326.31 562.845 1303.65H445.726V1304.49ZM310.913 1458.11C323.552 1460.62 336.19 1462.3 349.672 1463.14C346.301 1405.22 327.764 1351.5 299.117 1304.49H181.998C249.404 1327.15 299.959 1386.75 310.913 1458.11ZM23.5923 1138.28C33.7033 1295.25 149.137 1424.53 299.959 1456.43C285.635 1369.96 210.646 1304.49 119.647 1304.49V1294.42H291.533C233.395 1206.27 135.656 1145.83 23.5923 1138.28ZM624.353 1294.42V1304.49C534.197 1304.49 458.365 1370.8 444.041 1456.43C594.863 1424.53 710.297 1296.09 720.408 1139.12C608.344 1146.67 510.605 1206.27 451.624 1294.42H624.353ZM304.172 1294.42H439.828C499.651 1200.4 602.446 1135.76 721.25 1129.05C721.25 1124.85 721.25 1120.65 721.25 1117.29C721.25 1113.1 721.25 1108.06 721.25 1103.86C537.567 1092.95 393.486 946.887 384.217 763.89H389.273H384.217C384.217 758.013 383.375 752.137 383.375 746.261C383.375 729.473 384.217 712.684 386.745 696.734C376.634 701.771 366.523 701.771 355.57 696.734C358.097 712.684 358.94 729.473 358.94 746.261C358.94 935.975 211.488 1092.11 21.9071 1103.86C21.9071 1108.06 21.9071 1112.26 21.9071 1116.45C21.9071 1120.65 21.9071 1124.85 21.9071 1129.05C141.554 1135.76 244.349 1200.4 304.172 1294.42ZM394.328 768.087C405.282 943.53 544.308 1082.04 720.408 1092.95C709.454 919.186 570.428 779.839 394.328 768.087ZM348.829 768.087C262.043 773.963 181.998 808.38 123.017 867.141C64.0362 925.901 29.4904 1003.97 23.5923 1092.95C199.692 1081.2 337.875 941.851 348.829 768.087ZM720.408 397.894C545.993 408.807 405.282 548.993 394.328 722.757C570.428 711.844 709.454 571.658 720.408 397.894ZM22.7497 397.894C33.7033 571.658 172.729 711.844 348.829 722.757C337.875 548.993 197.164 408.807 22.7497 397.894ZM359.783 444.063H353.884C149.98 433.99 12.6387 306.395 11.7961 126.755V0H21.9071C21.9071 84.7834 55.6104 178.801 151.665 190.553L155.878 191.392V374.39C163.461 379.426 171.044 383.624 178.627 387.821V196.429H188.738C188.738 291.285 259.515 374.39 348.829 385.303L353.042 386.142L359.783 444.063ZM189.581 392.857C235.08 415.522 289.006 429.793 348.829 433.151L344.616 394.536C272.154 384.463 212.331 329.9 189.581 259.387V392.857ZM21.9071 125.076C21.9071 227.488 67.4066 312.271 145.767 366.835V199.786C95.2118 192.232 42.9717 156.136 21.9071 79.7467V125.076ZM383.375 444.063L390.958 385.303L395.171 384.463C484.485 373.55 554.419 290.446 554.419 195.589H564.53V386.981C572.956 382.784 580.539 377.748 588.122 372.711H587.28V191.392L591.493 190.553C686.704 178.801 721.25 84.7834 721.25 0H731.361V126.755C729.676 305.556 593.178 432.311 389.273 442.384L383.375 444.063ZM400.226 394.536L395.171 433.151C455.837 429.793 510.605 414.683 556.947 391.179H554.419V259.387C531.669 329.06 471.846 383.624 400.226 394.536ZM597.391 201.465V367.674C675.751 313.111 721.25 228.327 721.25 125.916V81.4256C700.186 157.815 647.946 193.071 597.391 201.465Z" fill="#1D827B"></path> </g> <defs> <clipPath id="clip0"> <rect width="186" height="464" fill="white" transform="scale(4)"></rect> </clipPath> </defs> </svg> 